<?xml version="1.0" encoding="UTF-8" standalone="no"?>
<!-- Created with xTool Creative Space (https://www.xtool.com/pages/software) -->

<svg
   version="1.1"
   preserveAspectRatio="xMinYMin"
   width="25.218632mm"
   height="23.925463mm"
   viewBox="148.57057 121.22001 25.218632 23.925463"
   id="svg4"
   sodipodi:docname="icons.svg"
   inkscape:export-filename="song.svg"
   inkscape:export-xdpi="96"
   inkscape:export-ydpi="96"
   xmlns:inkscape="http://www.inkscape.org/namespaces/inkscape"
   xmlns:sodipodi="http://sodipodi.sourceforge.net/DTD/sodipodi-0.dtd"
   xmlns="http://www.w3.org/2000/svg"
   xmlns:svg="http://www.w3.org/2000/svg">
  <defs
     id="defs4" />
  <sodipodi:namedview
     id="namedview4"
     pagecolor="#505050"
     bordercolor="#eeeeee"
     borderopacity="1"
     inkscape:showpageshadow="0"
     inkscape:pageopacity="0"
     inkscape:pagecheckerboard="0"
     inkscape:deskcolor="#505050"
     inkscape:document-units="mm">
    <inkscape:page
       x="0"
       y="0"
       width="25.218632"
       height="23.925463"
       id="page2"
       margin="0"
       bleed="0" />
  </sodipodi:namedview>
  <style
     id="style1" />
  <path
     stroke="#000000"
     fill="none"
     vector-effect="non-scaling-stroke"
     data-view-type="laser"
     d="m 154.63668,121.47021 c -0.27533,0.15322 -0.20378,0.45017 -0.20786,0.71578 v 9.15172 h 1.524 v -8.63602 h 12.78469 c 0.0142,1.07687 -0.0395,2.15737 0.0554,3.23103 0.43527,0.42717 1.2921,0.16117 1.9089,0.24031 h 1.50707 c 0.0104,5.66527 -0.0304,11.33107 0.0462,16.99589 0.18809,0.34347 -0.34075,0.13499 -0.53604,0.19147 h -10.77622 c -0.42374,0.43133 -0.88139,0.8332 -1.26459,1.3015 4.34344,0.0902 8.68933,0.0401 13.03386,0.0532 0.25454,-0.023 0.5571,0.0462 0.78154,-0.0347 0.16712,-0.19926 0.29775,-0.40995 0.23929,-0.68033 v -18.77004 c -1.33201,-1.29021 -2.6224,-2.62625 -4.00812,-3.85886 -1.58201,-0.14319 -3.17934,-0.0736 -4.76784,-0.10193 -3.3708,-0.007 -6.74163,-0.005 -10.11244,-0.007 z m 16.25315,2.65016 c 0.24031,0.29091 1.16329,0.88026 0.26022,0.75596 -0.35254,0.0124 -0.70524,0.0196 -1.05787,0.0293 0.01,-0.50627 -0.0264,-1.01738 0.0356,-1.5196 0.25357,0.24522 0.50794,0.48961 0.76201,0.73432 z m -13.07434,3.11032 c 0.0672,0.18703 -0.1458,0.65426 0.127,0.63568 h 9.7018 l -0.0498,-1.22767 -9.77902,-0.0437 z m 0,3.04868 c 0.0628,0.20531 -0.15393,0.69015 0.16934,0.635 h 12.19202 v -1.27 h -12.36136 z m -4.19718,1.89688 c -2.35068,0.59326 -4.34049,2.52375 -4.83852,4.91988 -0.62461,2.6336 0.5438,5.59981 2.86989,7.01637 1.10016,0.72359 2.4211,1.04775 3.73147,0.98243 2.66881,0.10018 5.19069,-1.76514 6.0675,-4.25447 0.74155,-2.12353 0.39866,-4.66911 -1.11116,-6.38416 -0.91449,-1.11306 -2.16519,-1.92947 -3.55408,-2.31189 -0.48358,-0.14138 -1.00718,-0.0566 -1.50787,-0.10136 -0.52004,0.003 -1.05292,-0.10243 -1.54871,0.1038 z m 6.73719,0.91829 c 0.0635,0.19758 -0.15555,0.67766 0.16933,0.61384 h 9.65202 v -1.18534 c -3.27382,-0.008 -6.54763,-0.0284 -9.82144,-0.0423 z m -4.40522,0.72212 c 0.64194,0.34581 0.81928,1.32709 0.19099,1.77466 -0.13244,0.28056 -0.43528,0.17379 -0.68341,0.19139 -0.2576,-0.0437 -0.60696,0.12127 -0.76175,-0.15604 -0.54341,-0.43082 -0.62903,-1.36504 0.0289,-1.7401 0.36333,-0.22724 0.83526,-0.21572 1.2253,-0.0699 z m 6.69122,2.09305 c 0.0526,0.21555 -0.15197,0.68819 0.21167,0.59267 h 7.32368 v -1.18534 h -7.53535 z m -6.35001,0.85962 c -0.31529,1.67411 -0.6952,3.33549 -1.03437,5.00491 0.48093,-0.0281 0.97956,-0.0704 1.3798,-0.36986 0.85132,0.14577 -0.20615,1.17923 -0.6819,1.30811 -0.78743,0.36476 -2.01335,0.36479 -2.43637,-0.53456 -0.409,-0.86261 0.018,-1.82455 0.1509,-2.70334 0.0572,-0.62425 0.52553,-1.52408 0.27138,-1.94566 -0.23789,-0.12549 -0.88676,0.18833 -0.86678,-0.17988 0.0145,-0.32754 0.0686,-0.82102 0.50377,-0.67734 0.89706,0.0204 1.80483,-0.056 2.69294,0.0733 z m 6.77335,1.84972 c 0.0526,0.21554 -0.15197,0.68819 0.21166,0.59267 h 6.90035 v -1.18534 h -7.11201 z"
     fill-rule="nonzero"
     id="path2"
     style="fill:#000000;fill-opacity:1;stroke-width:0.0846668" />
</svg>
