<svg xmlns="http://www.w3.org/2000/svg" viewBox="0 0 64 64" fill="none">
  <path fill="#000" d="M15 33c0-3.3 2.7-6 6-6 2.1 0 4.1 1.1 5.2 2.9l4.8 7.8 1.7-2.7c1.8-2.9 5.1-4.7 8.6-4.7 5.8 0 10.5 4.7 10.5 10.5v1.2c0 3-1.1 5.8-3.1 7.9L43 56H21.1l-5.8-6.1c-1.9-2-3-4.8-3-7.6V33z"/>
  <path fill="#fff" d="M21 35.5c0-1.4 1.1-2.5 2.5-2.5 1 0 1.8.5 2.3 1.3l5.9 9.7 4.3-7c1-1.6 2.7-2.5 4.6-2.5 2.9 0 5.2 2.3 5.2 5.2v.8c0 1.9-.7 3.7-2 5l-2.8 2.8H25.4l-2.4-2.6c-1.3-1.3-2-3.1-2-4.9v-5.3z"/>
  <path fill="#000" d="M29 15h6v8h-6z"/>
</svg>
