<?xml version="1.0" encoding="UTF-8" standalone="no"?>
<!-- Created with xTool Creative Space (https://www.xtool.com/pages/software) -->

<svg
   version="1.1"
   fill="#000000"
   preserveAspectRatio="xMinYMin"
   width="26.217009mm"
   height="22.317621mm"
   viewBox="148.57057 121.22001 26.217008 22.317621"
   id="svg4"
   sodipodi:docname="icons.svg"
   inkscape:export-filename="song.svg"
   inkscape:export-xdpi="96"
   inkscape:export-ydpi="96"
   xmlns:inkscape="http://www.inkscape.org/namespaces/inkscape"
   xmlns:sodipodi="http://sodipodi.sourceforge.net/DTD/sodipodi-0.dtd"
   xmlns="http://www.w3.org/2000/svg"
   xmlns:svg="http://www.w3.org/2000/svg">
  <defs
     id="defs4" />
  <sodipodi:namedview
     id="namedview4"
     pagecolor="#505050"
     bordercolor="#eeeeee"
     borderopacity="1"
     inkscape:showpageshadow="0"
     inkscape:pageopacity="0"
     inkscape:pagecheckerboard="0"
     inkscape:deskcolor="#505050"
     inkscape:document-units="mm">
    <inkscape:page
       x="0"
       y="0"
       width="26.217009"
       height="22.317621"
       id="page2"
       margin="0"
       bleed="0" />
  </sodipodi:namedview>
  <style
     id="style1" />
  <path
     stroke="#000000"
     fill="none"
     vector-effect="non-scaling-stroke"
     data-view-type="laser"
     d="m 156.13013,121.66107 c -1.80186,0.87673 -3.67004,1.61641 -5.44693,2.54271 -1.13745,0.63362 -1.38708,2.01341 -1.56775,3.19066 -0.38594,3.00342 -0.66572,6.05007 -0.39456,9.07612 0.14367,1.09 0.27681,2.40245 1.30179,3.04536 1.06861,0.73735 2.46028,0.47403 3.65706,0.28904 3.46325,-0.66904 6.67544,-2.2176 9.71352,-3.96283 1.62068,-0.88624 3.21965,-1.83117 4.94667,-2.4978 0.11399,-0.6568 0.0791,-1.32987 0.10922,-1.99467 -0.98494,-0.48924 -2.12508,-0.27901 -3.11842,0.076 -3.95823,1.20053 -7.96611,2.3078 -12.08699,2.77796 -0.86643,0.0991 -1.71941,0.32449 -2.58995,0.37139 0.17852,-0.64929 1.19924,-0.68578 1.79434,-0.87727 2.19155,-0.41143 4.41062,-0.66839 6.59127,-1.14335 0.97187,-0.1301 -0.4031,-0.47131 -0.67406,-0.62954 -1.68111,-0.67857 -3.32957,-1.62854 -5.1802,-1.71139 -0.90354,-0.0401 -1.80425,0.11495 -2.63875,0.46284 -0.50314,-0.19175 0.56215,-0.85324 0.91171,-0.90508 0.79049,-0.23477 1.64211,-0.009 2.43124,-0.19274 -0.25462,-1.11579 -0.81069,-2.14346 -1.11541,-3.24536 0.53545,0.44055 0.80368,1.18625 1.15431,1.79046 0.43792,0.57743 0.3386,1.63549 1.16316,1.82516 1.67763,0.52583 3.24661,1.34435 4.91913,1.8786 0.45552,0.17638 0.92503,-0.0529 1.38748,-0.0926 1.77238,-0.28798 3.46797,-0.9023 5.21744,-1.2839 0.64026,-0.13348 1.2867,0.0305 1.9042,0.18126 0.3478,-0.58089 0.40432,-1.30353 0.68026,-1.92704 0.29743,-0.79055 0.67496,-1.56101 1.16701,-2.24862 0.0518,0.39624 -0.36963,1.13471 -0.49588,1.66233 -0.57546,1.6866 -0.80574,3.46266 -0.87825,5.23634 1.22856,-0.36535 2.68247,-0.15549 3.68893,0.66396 0.29897,0.2391 0.50849,0.63678 -0.0224,0.36057 -1.63002,-0.67815 -3.52984,-0.72474 -5.14766,0.0122 -2.05755,1.03103 -3.99111,2.29056 -6.02004,3.37597 -0.9533,0.45016 0.6487,0.55735 0.96935,0.76642 3.12012,0.96911 6.40589,1.90355 9.70237,1.43562 1.01832,-0.11988 1.9863,-0.77751 2.25948,-1.80308 0.51926,-1.56337 0.26106,-3.23732 0.23434,-4.84947 -0.1462,-2.34802 -0.27955,-4.70855 -0.71373,-7.02384 -0.18457,-1.04491 -0.89717,-1.97393 -1.90278,-2.34558 -2.01431,-0.93729 -4.043,-1.84687 -6.10302,-2.67947 -0.55701,0.43256 -0.72863,1.34129 -1.29629,1.8541 -0.87602,0.99059 -1.85303,1.91655 -2.96446,2.63668 -0.30676,0.13088 -0.60872,-0.32993 -0.89826,-0.41724 -1.4309,-1.03815 -2.82707,-2.25667 -3.57043,-3.8991 -0.16637,-0.49161 -0.75932,0.17894 -1.07802,0.21824 z m -2.55296,9.43188 c 0.19163,0.002 1.26523,0.42241 0.6433,0.3788 -1.26368,-0.038 -2.53344,0.1343 -3.71802,0.58727 -0.73681,0.39488 -0.35445,-0.38199 0.0462,-0.57642 0.8911,-0.53854 2.02975,-0.60419 3.02854,-0.38965 z m 0.32402,1.31573 c 0.30158,0.40183 -1.05871,0.36098 -1.41707,0.51101 -0.82752,0.14962 -1.63461,0.38647 -2.42562,0.66873 -0.001,-0.7482 1.00768,-0.92749 1.58616,-1.14922 0.72811,-0.18764 1.52804,-0.23733 2.25653,-0.0305 z m 5.78494,6.42282 c -2.39971,0.94516 -4.90067,1.76261 -7.49301,1.91127 -0.0155,0.91747 -0.031,1.83495 -0.0466,2.75243 6.33731,-0.0144 12.67463,-0.0288 19.01193,-0.0431 v -2.54001 c -1.91451,-0.0513 -3.82237,-0.28649 -5.68216,-0.75132 -1.77331,-0.38599 -3.49148,-0.99127 -5.26486,-1.37166 -0.1732,-0.0228 -0.36574,-0.0496 -0.52533,0.0424 z"
     fill-rule="nonzero"
     id="path4"
     style="fill:#000000;fill-opacity:1;stroke-width:0.0846668" />
</svg>
