<?xml version="1.0" encoding="UTF-8" standalone="no"?>
<!-- Created with xTool Creative Space (https://www.xtool.com/pages/software) -->

<svg
   version="1.1"
   preserveAspectRatio="xMinYMin"
   width="24.251806mm"
   height="18.458839mm"
   viewBox="148.57057 121.22001 24.251806 18.45884"
   id="svg4"
   sodipodi:docname="icons.svg"
   inkscape:export-filename="song.svg"
   inkscape:export-xdpi="96"
   inkscape:export-ydpi="96"
   xmlns:inkscape="http://www.inkscape.org/namespaces/inkscape"
   xmlns:sodipodi="http://sodipodi.sourceforge.net/DTD/sodipodi-0.dtd"
   xmlns="http://www.w3.org/2000/svg"
   xmlns:svg="http://www.w3.org/2000/svg">
  <defs
     id="defs4" />
  <sodipodi:namedview
     id="namedview4"
     pagecolor="#505050"
     bordercolor="#eeeeee"
     borderopacity="1"
     inkscape:showpageshadow="0"
     inkscape:pageopacity="0"
     inkscape:pagecheckerboard="0"
     inkscape:deskcolor="#505050"
     inkscape:document-units="mm">
    <inkscape:page
       x="0"
       y="0"
       width="24.251806"
       height="18.458839"
       id="page2"
       margin="0"
       bleed="0" />
  </sodipodi:namedview>
  <style
     id="style1" />
  <path
     stroke="#000000"
     fill="none"
     vector-effect="non-scaling-stroke"
     data-view-type="laser"
     d="m 164.43805,121.60993 c -3.1334,0.87232 -6.27441,1.71885 -9.40249,2.60924 -0.7204,0.21958 -0.25122,1.29425 -0.40714,1.87623 -0.0202,2.74183 -0.009,5.48377 -0.0117,8.22564 -1.07666,-0.36877 -2.26874,-0.45492 -3.34022,-0.0127 -1.2277,0.4481 -2.56139,1.38383 -2.66154,2.80185 -0.0656,1.48212 1.47021,2.53453 2.83821,2.52121 1.61467,0.0617 3.37129,-0.42879 4.40254,-1.74371 0.26349,-0.41869 0.52275,-0.89938 0.45563,-1.41022 -0.0203,-2.71603 -0.11933,-5.4331 -0.0506,-8.14854 0.43804,-0.48462 1.4221,-0.45256 2.0634,-0.73705 2.03605,-0.56826 4.08058,-1.10654 6.11395,-1.684 v 6.63517 c -1.27271,-0.45614 -2.74119,-0.53568 -3.95085,0.15346 -1.07529,0.47609 -2.12137,1.48014 -2.00203,2.75131 0.12016,1.41187 1.58116,2.24873 2.88618,2.27528 1.62541,0.06 3.39869,-0.52614 4.3918,-1.87228 0.1673,-0.28365 0.39691,-0.56441 0.32704,-0.91449 0.0153,-4.55789 0.0306,-9.1158 0.0459,-13.67369 -0.57988,0.004 -1.13808,0.21973 -1.69799,0.3473 z m 6.51934,4.38871 c -1.08407,0.48015 -2.13727,1.06704 -3.08619,1.77876 -0.213,0.70713 1.00384,0.0651 1.36526,0.002 0.78787,-0.32042 1.6954,-0.48125 2.37426,-0.99845 0.27313,-0.37403 -0.22525,-1.04053 -0.65333,-0.78233 z m -0.85073,3.68317 c -0.81042,0.12698 -1.67104,0.16647 -2.40047,0.57734 0.52527,0.45861 1.29735,0.36292 1.94359,0.48245 0.89685,0.051 1.80785,0.25297 2.70206,0.10347 0.60735,-0.2121 0.51072,-0.91353 0.071,-1.22938 -0.77321,-0.0371 -1.54695,-0.0346 -2.31623,0.0661 z m -2.21844,2.48362 c -0.35792,0.42244 0.75048,0.82426 1.05834,1.1369 0.62579,0.27988 1.16683,1.08685 1.90459,0.91933 0.49001,-0.19823 0.38207,-0.75168 -0.0635,-0.93525 -0.8572,-0.51194 -1.78818,-0.96385 -2.77987,-1.12799 z"
     fill-rule="nonzero"
     id="path1"
     style="fill:#000000;fill-opacity:1;stroke-width:0.0846668" />
</svg>
