<?xml version="1.0" encoding="UTF-8" standalone="no"?>
<!-- Created with xTool Creative Space (https://www.xtool.com/pages/software) -->

<svg
   version="1.1"
   fill="#000000"
   preserveAspectRatio="xMinYMin"
   width="26.933878mm"
   height="25.170877mm"
   viewBox="148.57057 121.22001 26.933878 25.170878"
   id="svg4"
   sodipodi:docname="icons.svg"
   inkscape:export-filename="song.svg"
   inkscape:export-xdpi="96"
   inkscape:export-ydpi="96"
   xmlns:inkscape="http://www.inkscape.org/namespaces/inkscape"
   xmlns:sodipodi="http://sodipodi.sourceforge.net/DTD/sodipodi-0.dtd"
   xmlns="http://www.w3.org/2000/svg"
   xmlns:svg="http://www.w3.org/2000/svg">
  <defs
     id="defs4" />
  <sodipodi:namedview
     id="namedview4"
     pagecolor="#505050"
     bordercolor="#eeeeee"
     borderopacity="1"
     inkscape:showpageshadow="0"
     inkscape:pageopacity="0"
     inkscape:pagecheckerboard="0"
     inkscape:deskcolor="#505050"
     inkscape:document-units="mm">
    <inkscape:page
       x="0"
       y="0"
       width="26.933878"
       height="25.170877"
       id="page2"
       margin="0"
       bleed="0" />
  </sodipodi:namedview>
  <style
     id="style1" />
  <path
     stroke="#000000"
     fill="none"
     vector-effect="non-scaling-stroke"
     data-view-type="laser"
     d="m 166.28375,121.28925 c -0.58707,0.14726 -1.19076,0.47035 -1.49666,1.01287 0.62243,0.64753 1.13799,1.4005 1.38679,2.2729 0.30678,0.8854 1.47236,0.18376 1.83545,-0.32406 0.82623,-1.07246 0.0891,-3.01923 -1.34999,-2.98825 -0.12557,7.6e-4 -0.25129,0.008 -0.37559,0.0265 z m -2.07823,1.6604 c -1.33688,0.9356 -2.68349,1.8572 -4.02599,2.78469 -0.1006,0.47792 -0.37987,0.88605 -0.80864,1.13308 -0.6557,0.50906 -1.13335,1.26607 -1.11818,2.11713 -0.0515,0.84486 -0.0543,1.69172 -0.0793,2.53762 h 1.03243 c 0.0294,-1.0489 -0.082,-2.11436 0.13146,-3.14776 0.13937,-0.47627 0.60438,-0.89593 1.00428,-1.09336 0.2594,0.10178 0.49936,0.39478 0.78693,0.21985 0.4332,-0.1115 0.87885,-0.678 0.75955,0.1229 0.0441,1.29897 0.0215,2.59891 0.0271,3.89837 h 1.27 l 0.004,-5.12234 c 0.86903,-0.50835 1.78391,-0.94912 2.59707,-1.54467 -0.1596,-0.70261 -0.62601,-1.31508 -1.05817,-1.88462 -0.13846,-0.24368 -0.34114,-0.16443 -0.52298,-0.0209 z m -15.41368,9.41918 c -0.29865,0.18917 -0.12226,0.57578 -0.16859,0.86895 0.0759,1.0579 0.6059,2.01451 0.93652,3.00829 0.20416,0.4817 0.36446,1.01485 0.75701,1.38176 0.22117,-0.0462 0.57034,0.0174 0.71535,-0.0942 -0.12061,-1.10775 -0.55765,-2.15303 -0.80095,-3.23652 4.96793,-0.0924 9.93861,-0.0559 14.9077,-0.0642 2.91875,0.0199 5.83973,-0.0241 8.75691,0.0769 -0.0684,0.72387 -0.44393,1.56138 -0.61802,2.33189 -0.46676,0.64339 0.13717,1.3613 0.77584,0.77352 0.56305,-1.12561 0.95136,-2.33669 1.31524,-3.53969 0.11704,-0.42666 0.0882,-0.87068 0.093,-1.30783 -0.20132,-0.15794 -0.34856,-0.45269 -0.64592,-0.36822 h -25.85478 z m 2.56778,2.8603 c 0.53868,3.58153 1.13381,7.15447 1.66556,10.73702 0.07,0.41787 0.4553,0.39336 0.77411,0.37263 5.75461,-0.0136 11.51004,0.0362 17.26392,-0.0612 0.41082,-0.63397 0.32429,-1.58497 0.50896,-2.34094 0.42813,-3.00826 0.89375,-6.01365 1.26504,-9.02842 -0.0553,-0.19888 -0.47965,-0.0285 -0.67733,-0.085 -6.95032,0.002 -13.90066,0.004 -20.85098,0.006 z"
     fill-rule="nonzero"
     id="path3"
     inkscape:export-filename="speaker.svg"
     inkscape:export-xdpi="96"
     inkscape:export-ydpi="96"
     style="fill:#000000;fill-opacity:1;stroke-width:0.0846668" />
</svg>
